<?xml version="1.0" encoding="utf-8"?>
<!-- Generator: Adobe Illustrator 17.1.0, SVG Export Plug-In . SVG Version: 6.00 Build 0)  -->
<!DOCTYPE svg PUBLIC "-//W3C//DTD SVG 1.1//EN" "http://www.w3.org/Graphics/SVG/1.1/DTD/svg11.dtd">
<svg version="1.1" id="Layer_1" xmlns="http://www.w3.org/2000/svg" xmlns:xlink="http://www.w3.org/1999/xlink" x="0px" y="0px"
	 width="600px" height="148px" viewBox="0 226 600 148" enable-background="new 0 226 600 148" xml:space="preserve">
<g>
	<g>
		<path fill="#00387C" d="M586.4,231.6c-4,0.4-36.8,2.4-36.8,2.4s-1.2-0.4-3.2,1.6c-1.6,2-100.8,114-100.8,114S432,364.4,412.8,366
			l0,0h135.6l40.8-132C589.2,234,590.4,231.2,586.4,231.6z"/>
	</g>
	<g>
		
			<linearGradient id="SVGID_1_" gradientUnits="userSpaceOnUse" x1="-1667.7021" y1="556.4184" x2="-1664.2101" y2="555.1356" gradientTransform="matrix(4.11 4.920000e-02 5.040000e-02 -3.9996 7315.6147 2638.3389)">
			<stop  offset="6.860500e-02" style="stop-color:#8B350B"/>
			<stop  offset="0.1507" style="stop-color:#913C0E"/>
			<stop  offset="0.2756" style="stop-color:#A34E14"/>
			<stop  offset="0.2965" style="stop-color:#A65215"/>
			<stop  offset="0.4558" style="stop-color:#B76519"/>
			<stop  offset="0.8895" style="stop-color:#E8A71F"/>
		</linearGradient>
		<path fill="url(#SVGID_1_)" d="M489.2,333.6c-0.8,0.4-1.6,1.2-2,2c-0.4,1.2,0.8,2.4,2,3.2c1.6,0.8,3.6,1.2,7.2,1.2
			c4,0,6-0.8,6-0.8s0.8-2.4,1.6-4c0.8-1.6,2-4.4,2.8-6C499.2,329.6,493.2,331.2,489.2,333.6z"/>
		
			<linearGradient id="SVGID_2_" gradientUnits="userSpaceOnUse" x1="-1664.59" y1="563.7411" x2="-1654.0547" y2="558.8856" gradientTransform="matrix(4.11 4.920000e-02 5.040000e-02 -3.9996 7315.6147 2638.3389)">
			<stop  offset="0" style="stop-color:#E79000"/>
			<stop  offset="2.356468e-02" style="stop-color:#E89400"/>
			<stop  offset="5.870681e-02" style="stop-color:#ECA022"/>
			<stop  offset="7.000000e-02" style="stop-color:#EDA42C"/>
			<stop  offset="0.1001" style="stop-color:#F0B24D"/>
			<stop  offset="0.2" style="stop-color:#FBDDAA"/>
			<stop  offset="0.222" style="stop-color:#FADAA3"/>
			<stop  offset="0.2562" style="stop-color:#F9D48F"/>
			<stop  offset="0.2986" style="stop-color:#F7C96C"/>
			<stop  offset="0.3469" style="stop-color:#F4BB35"/>
			<stop  offset="0.35" style="stop-color:#F4BA30"/>
			<stop  offset="0.66" style="stop-color:#EEA900"/>
			<stop  offset="0.98" style="stop-color:#E78E00"/>
		</linearGradient>
		<path fill="url(#SVGID_2_)" d="M562.4,287.6c0,0-3.2,4-15.2,3.6c-8,0-12-2.4-21.6-2.8c-10.8,0-18.4,3.6-20.8,8.4
			c-1.2,2.4-7.2,16-7.2,16s3.2-3.6,8.8-5.2c7.6-2.4,14.8-2,22-0.8c5.2,0.8,8.4,2,13.2,1.6c4.4,0,6.8-1.2,8.4-2
			c2.4-1.2,4.4-3.2,7.2-7.6C559.6,296,562,289.2,562.4,287.6z M488,334c1.6-3.6,4-9.6,7.2-15.2c0.4-1.2,1.6-2.4,2.8-3.2
			c4-3.6,13.2-6.4,24.4-5.6c8,0.8,11.2,1.6,16,2c2,0,4.4,0.4,6.4,0c5.2-0.8,6.8-2,6.8-2s-3.2,8.4-8,13.6c-5.6,6.4-11.2,6.8-22,6
			c-15.6-1.6-26.4,0.4-32.4,4.4c-0.8,0.4-1.6,1.6-2,2.4C487.2,336.4,487.2,335.6,488,334z"/>
	</g>
	<path fill="#00387C" d="M216.4,291.6H200c0,0.4,0,0.4,0.4,0.8c0.8,0.4,1.6,1.2,2.4,2c1.2,1.2,1.2,1.6,1.2,3.6v30.8h10V304l0,0
		l22,24.8h8.8v-37.2h-14c0,0.4,0,0.8,0.4,0.8c0.8,0.4,1.6,1.2,2.4,2c0.8,0.8,1.2,1.2,1.2,3.2V312L216.4,291.6z M400.8,328.8l-8-13.2
		h-9.2v13.2h-11.2V298c0-2-0.4-2.4-0.8-3.2c-0.8-1.2-1.6-1.6-2.4-2c-0.4-0.4-0.8-0.4-0.8-0.8h28.8c8.4,0,14.4,4,14.4,11.6
		c0,6-2.8,9.2-8,11.2l8.8,14H400.8z M350.4,328.8V298c0-2-0.4-2.4-0.8-3.2c-0.8-1.2-1.6-1.6-2.4-2c-0.4-0.4-0.4-0.4-0.4-0.8H362
		v37.2h-11.6V328.8z M332.8,328.8l-3.2-7.2h-18.8l-2.8,7.2h-10.4l14.4-31.6c0-0.4,0.4-0.8,0.4-1.6c0-0.8-0.8-1.6-2.4-2.8
		c-0.4-0.4-0.4-0.4-0.4-1.2h18.8l17.2,37.2H332.8z M275.6,328.8H256V298c0-2-0.4-2.4-1.2-3.2c-0.8-1.2-1.6-1.6-2.4-2
		c-0.4-0.8-0.4-0.8-0.4-1.2h23.2c13.6,0,20.8,7.2,20.8,18.4C296,320.8,289.6,328.8,275.6,328.8z M118.8,328.8V298
		c0-2-0.4-2.4-0.8-3.2c-0.8-1.2-1.6-1.6-2.4-2c-0.4-0.4-0.4-0.4-0.4-0.8h15.2v28.4H148v8.8h-29.2V328.8z M75.2,328.8V298
		c0-2-0.4-2.4-0.8-3.2c-0.8-1.2-1.6-1.6-2.4-2c-0.4-0.4-0.4-0.4-0.4-0.8h38.8v7.6H86.8v6.4h17.6v7.6H86.8v7.2h23.6v8
		C110.4,328.8,75.2,328.8,75.2,328.8z M52.4,330c-13.2,0-24.8-5.6-24.8-19.6c0-11.2,8.4-20.4,24.8-20.4c6.4,0,11.2,1.2,15.6,3.2
		l-2.8,8.8c-2.4-1.6-6.8-3.2-12-3.2c-10,0-14,5.6-14,11.2c0,7.6,6,11.6,14,11.6c5.2,0,9.6-1.6,12.4-3.2l2.8,8
		C64.8,328,59.2,330,52.4,330z M10.8,328.8v-38.4c0-2-0.4-2.4-0.8-3.2c-1.2-1.2-2-1.6-2.4-2c-0.4-0.4-0.4-0.4-0.4-0.8h15.2v44.4
		H10.8z M394.8,298.8h-11.2v9.2h12c3.6,0,5.6-1.6,5.6-4.8C401.2,301.2,400,298.8,394.8,298.8z M320.4,300.4l-6.4,14h12.4
		L320.4,300.4z M274,299.6h-6.8v20.8h6.8c8,0,10.8-3.6,10.8-10.4C284.8,302.8,281.2,299.6,274,299.6z M186.8,328.8l-3.2-7.2h-18.8
		l-3.2,7.2h-10.4l14.4-31.6c0-0.4,0.4-0.8,0.4-1.6c0-0.8-0.8-1.6-2.4-2.8c-0.4-0.4-0.4-0.4-0.4-1.2H182l17.2,37.2H186.8z
		 M174.4,300.4l-6.4,14h12.4L174.4,300.4z"/>
	<line fill="none" x1="174" y1="300" x2="174" y2="300"/>
</g>
</svg>
