<?xml version="1.0" encoding="UTF-8" standalone="no"?>
<!-- Created with Inkscape (http://www.inkscape.org/) -->

<svg
   xmlns:dc="http://purl.org/dc/elements/1.1/"
   xmlns:cc="http://creativecommons.org/ns#"
   xmlns:rdf="http://www.w3.org/1999/02/22-rdf-syntax-ns#"
   xmlns:svg="http://www.w3.org/2000/svg"
   xmlns="http://www.w3.org/2000/svg"
   xmlns:sodipodi="http://sodipodi.sourceforge.net/DTD/sodipodi-0.dtd"
   xmlns:inkscape="http://www.inkscape.org/namespaces/inkscape"
   id="svg2"
   version="1.1"
   inkscape:version="0.48.3.1 r9886"
   width="395.50537"
   height="91.805748"
   xml:space="preserve"
   sodipodi:docname="logo.svg"><metadata
     id="metadata8"><rdf:RDF><cc:Work
         rdf:about=""><dc:format>image/svg+xml</dc:format><dc:type
           rdf:resource="http://purl.org/dc/dcmitype/StillImage" /><dc:title></dc:title></cc:Work></rdf:RDF></metadata><defs
     id="defs6"><clipPath
       clipPathUnits="userSpaceOnUse"
       id="clipPath16"><path
         d="m 0,841.89 595.28,0 L 595.28,0 0,0 0,841.89 z"
         id="path18"
         inkscape:connector-curvature="0" /></clipPath></defs><sodipodi:namedview
     pagecolor="#ffffff"
     bordercolor="#666666"
     borderopacity="1"
     objecttolerance="10"
     gridtolerance="10"
     guidetolerance="10"
     inkscape:pageopacity="0"
     inkscape:pageshadow="2"
     inkscape:window-width="1920"
     inkscape:window-height="1052"
     id="namedview4"
     showgrid="false"
     inkscape:zoom="0.63429547"
     inkscape:cx="346.25803"
     inkscape:cy="-43.528979"
     inkscape:window-x="0"
     inkscape:window-y="0"
     inkscape:window-maximized="1"
     inkscape:current-layer="g10"
     fit-margin-top="0"
     fit-margin-left="0"
     fit-margin-right="0"
     fit-margin-bottom="0"><sodipodi:guide
       position="-174.487,-480.32542"
       orientation="0,744.09998"
       id="guide3073" /><sodipodi:guide
       position="569.61298,-480.32542"
       orientation="-1052.3625,0"
       id="guide3075" /><sodipodi:guide
       position="569.61298,572.03708"
       orientation="0,-744.09998"
       id="guide3077" /><sodipodi:guide
       position="-174.487,572.03708"
       orientation="1052.3625,0"
       id="guide3079" /><sodipodi:guide
       position="-174.487,-480.32542"
       orientation="0,744.09998"
       id="guide3081" /><sodipodi:guide
       position="569.61298,-480.32542"
       orientation="-1052.3625,0"
       id="guide3083" /><sodipodi:guide
       position="-174.487,572.03708"
       orientation="0,-744.09998"
       id="guide3085" /><sodipodi:guide
       position="-174.487,572.03708"
       orientation="1052.3625,0"
       id="guide3087" /></sodipodi:namedview><g
     id="g10"
     inkscape:groupmode="layer"
     inkscape:label="logo"
     transform="matrix(1.25,0,0,-1.25,-174.487,572.13112)"><g
       id="g12"><g
         id="g14"
         clip-path="url(#clipPath16)"><g
           id="g20"
           transform="translate(201.2075,440.4463)"><path
             d="M 0,0 0,0.063 -0.007,0.061 C -0.157,1.66 -1.555,2.855 -3.165,2.744 -4.8,2.629 -6.032,1.212 -5.919,-0.42 l -0.002,0 0,-41.853 c 0,-2.17 -0.776,-4.033 -2.331,-5.587 -1.554,-1.555 -3.368,-2.332 -5.44,-2.332 -2.393,0 -4.366,0.777 -5.921,2.332 -1.53,1.505 -2.319,3.403 -2.368,5.7 l 0,17.417 -0.01,0 c 0,0.018 0.002,0.036 0.002,0.055 -0.072,1.63 -1.452,2.896 -3.084,2.827 -1.569,-0.069 -2.796,-1.348 -2.826,-2.896 l -0.004,0 0,-17.516 c 0,-3.797 1.358,-7.079 4.071,-9.843 2.665,-2.714 5.97,-4.07 9.918,-4.07 3.849,0 7.13,1.356 9.844,4.07 2.713,2.715 4.07,5.994 4.07,9.843 L 0,-0.4 c 0.008,0.129 0.011,0.259 0.001,0.391 0,0.002 0,0.006 -0.001,0.009"
             style="fill:#2b2b2a;fill-opacity:1;fill-rule:nonzero;stroke:none"
             id="path22"
             inkscape:connector-curvature="0" /></g><g
           id="g24"
           transform="translate(260.3633,446.6284)"><path
             d="m 0,0 c 1.009,0 1.868,0.364 2.578,1.093 0.71,0.729 1.065,1.596 1.065,2.606 0,1.027 -0.355,1.896 -1.065,2.605 C 1.85,7.033 0.99,7.397 0,7.397 -1.009,7.397 -1.869,7.033 -2.578,6.304 -3.29,5.577 -3.643,4.708 -3.643,3.699 -3.643,2.67 -3.29,1.798 -2.578,1.078 -1.869,0.359 -1.009,0 0,0"
             style="fill:#2b2b2a;fill-opacity:1;fill-rule:nonzero;stroke:none"
             id="path26"
             inkscape:connector-curvature="0" /></g><g
           id="g28"
           transform="translate(198.1733,454.0254)"><path
             d="m 0,0 c -1.009,0 -1.869,-0.364 -2.579,-1.093 -0.71,-0.727 -1.064,-1.596 -1.064,-2.605 0,-1.029 0.354,-1.901 1.064,-2.621 0.71,-0.719 1.57,-1.078 2.579,-1.078 1.009,0 1.868,0.364 2.578,1.093 0.711,0.729 1.065,1.596 1.065,2.606 0,1.027 -0.354,1.896 -1.065,2.605 C 1.85,-0.364 0.99,0 0,0"
             style="fill:#2b2b2a;fill-opacity:1;fill-rule:nonzero;stroke:none"
             id="path30"
             inkscape:connector-curvature="0" /></g><g
           id="g32"
           transform="translate(226.2119,413.0859)"><path
             d="m 0,0 c -0.05,-2.294 -0.84,-4.194 -2.369,-5.697 -1.579,-1.555 -3.404,-2.332 -5.477,-2.332 -2.145,0 -4.057,0.777 -5.736,2.332 -1.652,1.528 -2.479,3.428 -2.479,5.697 l 0,13.619 c 0.024,2.122 0.802,3.947 2.332,5.478 1.554,1.553 3.367,2.33 5.439,2.33 2.369,0 4.342,-0.777 5.921,-2.33 C -0.84,17.591 -0.05,15.692 0,13.397 L 0,0 z m -8.067,27.423 c -3.849,0 -7.13,-1.358 -9.843,-4.072 -2.715,-2.714 -4.071,-5.994 -4.071,-9.843 l 0,-13.618 c 0,-3.849 1.356,-7.131 4.071,-9.845 2.713,-2.714 5.994,-4.07 9.843,-4.07 3.847,0 7.141,1.356 9.88,4.07 2.738,2.714 4.108,5.996 4.108,9.845 l 0,13.618 c 0,3.849 -1.37,7.129 -4.108,9.843 -2.739,2.714 -6.033,4.072 -9.88,4.072"
             style="fill:#2b2b2a;fill-opacity:1;fill-rule:nonzero;stroke:none"
             id="path34"
             inkscape:connector-curvature="0" /></g><g
           id="g36"
           transform="translate(373.1074,419.8223)"><path
             d="m 0,0 0,6.771 c 0,2.171 0.777,4.035 2.332,5.589 1.553,1.554 3.367,2.33 5.438,2.33 2.371,0 4.343,-0.778 5.923,-2.336 1.43,-1.409 2.205,-3.153 2.33,-5.23 L 0,0 z m 21.98,6.771 c 0,3.998 -1.37,7.278 -4.106,9.844 -2.886,2.714 -6.181,4.072 -9.881,4.072 -3.848,0 -7.13,-1.358 -9.845,-4.072 -2.713,-2.714 -4.069,-5.994 -4.069,-9.844 l 0,-13.618 c 0,-3.848 1.356,-7.131 4.069,-9.844 2.715,-2.714 5.997,-4.071 9.845,-4.071 3.847,0 7.031,1.334 9.549,3.998 2.958,3.158 4.438,6.464 4.438,9.917 l 0,2.319 c -0.018,1.627 -1.339,2.942 -2.971,2.942 -1.489,0 -2.719,-1.096 -2.937,-2.524 l -0.012,0.003 0,-0.096 c -0.014,-0.117 -0.024,-0.235 -0.024,-0.355 0,-0.122 0.01,-0.239 0.024,-0.357 l 0,-1.821 c -0.05,-2.294 -0.839,-4.195 -2.367,-5.698 -1.58,-1.554 -3.406,-2.332 -5.478,-2.332 -2.368,0 -4.33,0.795 -5.883,2.387 C 0.777,-10.788 0,-8.822 0,-6.479 l 21.98,9.772 0,3.478 z"
             style="fill:#2b2b2a;fill-opacity:1;fill-rule:nonzero;stroke:none"
             id="path38"
             inkscape:connector-curvature="0" /></g><g
           id="g40"
           transform="translate(358.9121,413.0859)"><path
             d="m 0,0 c -0.05,-2.294 -0.841,-4.194 -2.368,-5.697 -1.58,-1.555 -3.405,-2.332 -5.476,-2.332 -2.147,0 -4.059,0.777 -5.738,2.332 -1.652,1.528 -2.48,3.428 -2.48,5.697 l 0,13.619 c 0.026,2.122 0.803,3.947 2.333,5.478 1.555,1.553 3.368,2.33 5.44,2.33 2.368,0 4.341,-0.777 5.921,-2.33 1.527,-1.506 2.318,-3.405 2.368,-5.7 L 0,0 z m 2.988,44.048 c -1.609,0 -2.916,-1.277 -2.967,-2.871 L 0,41.176 0,24.905 c -2.344,1.678 -5.032,2.518 -8.067,2.518 -3.849,0 -7.128,-1.358 -9.843,-4.072 -2.714,-2.714 -4.07,-5.994 -4.07,-9.843 l 0,-13.618 c 0,-3.849 1.356,-7.131 4.07,-9.845 2.715,-2.714 5.994,-4.07 9.843,-4.07 3.848,0 7.143,1.356 9.88,4.07 2.739,2.714 4.109,5.996 4.109,9.845 l 0,40.732 c 0.022,0.149 0.038,0.299 0.038,0.454 0,1.641 -1.331,2.972 -2.972,2.972"
             style="fill:#2b2b2a;fill-opacity:1;fill-rule:nonzero;stroke:none"
             id="path42"
             inkscape:connector-curvature="0" /></g><g
           id="g44"
           transform="translate(328.5381,413.0859)"><path
             d="m 0,0 c -0.05,-2.294 -0.838,-4.194 -2.368,-5.697 -1.58,-1.555 -3.403,-2.332 -5.476,-2.332 -2.147,0 -4.059,0.777 -5.738,2.332 -1.652,1.528 -2.48,3.428 -2.48,5.697 l 0,2.235 c 0.003,0.071 0.012,0.138 0.012,0.208 l 0,3.072 -0.012,-0.004 0,8.108 c 0.026,2.122 0.803,3.947 2.333,5.478 1.555,1.553 3.368,2.33 5.44,2.33 2.37,0 4.341,-0.777 5.921,-2.33 1.53,-1.506 2.318,-3.405 2.368,-5.7 L 0,0 z m -8.067,27.423 c -3.849,0 -7.128,-1.358 -9.843,-4.072 -2.714,-2.714 -4.069,-5.994 -4.069,-9.843 l 0,-11.365 c -0.046,-2.877 -1.099,-5.333 -3.174,-7.359 -2.122,-2.099 -4.651,-3.145 -7.587,-3.145 -2.985,0 -5.527,1.046 -7.624,3.145 -1.911,1.91 -2.941,4.174 -3.111,6.784 l 0,1.282 -0.033,-0.004 0,22.688 c 0,2.961 1.047,5.483 3.144,7.568 2.097,2.085 4.639,3.127 7.624,3.127 2.936,0 5.465,-1.048 7.587,-3.145 0.863,-0.855 1.786,-2.264 2.541,-3.608 0.803,-1.382 2.573,-1.851 3.957,-1.049 1.295,0.753 1.787,2.357 1.181,3.693 l 0.007,0.004 c -0.806,1.772 -1.962,3.413 -3.469,4.919 -3.207,3.233 -7.141,4.848 -11.804,4.848 -4.614,0 -8.549,-1.609 -11.804,-4.828 -3.257,-3.22 -4.886,-7.1 -4.886,-11.638 l 0,-22.982 c 0,-0.239 0.023,-0.467 0.032,-0.703 -0.027,-3.936 -0.802,-5.606 -2.329,-7.252 -1.553,-1.679 -3.367,-2.517 -5.44,-2.517 -2.368,0 -4.342,0.777 -5.921,2.332 -1.529,1.503 -2.318,3.403 -2.368,5.697 l 0,27.423 -0.016,-0.002 c -0.001,0.013 10e-4,0.024 0,0.036 -0.069,1.629 -1.445,2.895 -3.073,2.826 -1.631,-0.069 -2.895,-1.446 -2.827,-3.075 0,-0.011 0.003,-0.021 0.003,-0.033 l -0.007,0 0,-26.904 -0.025,-0.011 c 0,-2.172 -0.777,-4.095 -2.332,-5.772 -1.554,-1.679 -3.368,-2.517 -5.44,-2.517 -2.369,0 -4.341,0.777 -5.921,2.332 -1.529,1.503 -2.319,3.403 -2.367,5.697 l 0,41.468 c 0.003,0.062 0.009,0.123 0.009,0.186 0,1.638 -1.328,2.965 -2.965,2.965 -1.639,0 -2.965,-1.327 -2.965,-2.965 l 0,-0.009 -0.002,0 0,-41.755 c 0,-3.849 1.37,-7.131 4.109,-9.845 2.739,-2.714 6.032,-4.07 9.88,-4.07 3.848,0 7.129,1.356 9.844,4.07 0.413,0.414 0.785,0.848 1.135,1.286 0.355,-0.438 0.729,-0.872 1.147,-1.286 2.738,-2.714 6.032,-4.07 9.881,-4.07 3.849,0 7.129,1.356 9.843,4.07 0.669,0.669 1.254,1.374 1.758,2.111 0.386,-0.468 0.795,-0.927 1.243,-1.37 3.23,-3.207 7.166,-4.811 11.804,-4.811 4.613,0 8.548,1.611 11.804,4.83 0.45,0.445 0.861,0.906 1.249,1.376 0.509,-0.746 1.101,-1.458 1.777,-2.136 2.715,-2.714 5.994,-4.07 9.843,-4.07 3.848,0 7.143,1.356 9.882,4.07 2.737,2.714 4.107,5.996 4.107,9.845 l 0,13.618 c 0,3.849 -1.37,7.129 -4.107,9.843 -2.739,2.714 -6.034,4.072 -9.882,4.072"
             style="fill:#2b2b2a;fill-opacity:1;fill-rule:nonzero;stroke:none"
             id="path46"
             inkscape:connector-curvature="0" /></g><g
           id="g48"
           transform="translate(433.5459,396.9346)"><path
             d="m 0,0 c -0.689,0 -1.379,0.262 -1.905,0.788 -1.051,1.054 -1.051,2.76 0,3.811 L 15.941,22.445 -1.905,40.292 c -1.051,1.053 -1.051,2.759 0,3.811 1.052,1.053 2.759,1.053 3.812,0 L 21.659,24.351 c 0.506,-0.505 0.789,-1.191 0.789,-1.906 0,-0.715 -0.283,-1.401 -0.789,-1.905 L 1.907,0.788 C 1.381,0.262 0.691,0 0,0"
             style="fill:#e9ce37;fill-opacity:1;fill-rule:nonzero;stroke:none"
             id="path50"
             inkscape:connector-curvature="0" /></g><g
           id="g52"
           transform="translate(162.0366,397.6367)"><path
             d="m 0,0 c -0.689,0 -1.378,0.263 -1.905,0.789 l -19.753,19.752 c -0.506,0.505 -0.789,1.19 -0.789,1.905 0,0.714 0.283,1.4 0.789,1.906 l 19.752,19.752 c 1.053,1.053 2.759,1.053 3.811,0 1.053,-1.052 1.053,-2.759 0,-3.811 L -15.942,22.446 1.905,4.6 C 2.958,3.549 2.958,1.842 1.905,0.789 1.38,0.263 0.689,0 0,0"
             style="fill:#e9ce37;fill-opacity:1;fill-rule:nonzero;stroke:none"
             id="path54"
             inkscape:connector-curvature="0" /></g><g
           id="g56"
           transform="translate(401.7383,390.9043)"><path
             d="M 0,0 C -0.341,0 -0.688,0.065 -1.025,0.204 -2.402,0.771 -3.058,2.346 -2.49,3.723 l 21.248,51.558 c 0.567,1.377 2.142,2.032 3.519,1.465 1.374,-0.566 2.032,-2.142 1.464,-3.518 L 2.493,1.671 C 2.063,0.629 1.061,0 0,0"
             style="fill:#e9ce37;fill-opacity:1;fill-rule:nonzero;stroke:none"
             id="path58"
             inkscape:connector-curvature="0" /></g></g></g></g></svg>